<?xml version="1.0" encoding="UTF-8"?>
<svg xmlns="http://www.w3.org/2000/svg" xmlns:xlink="http://www.w3.org/1999/xlink" width="15px" height="14px" viewBox="0 0 15 14" version="1.1">
<g id="surface1">
<path style=" stroke:none;fill-rule:nonzero;fill:rgb(0%,0%,0%);fill-opacity:1;" d="M 3.359375 12.25 L 0.246094 12.25 L 0.246094 4.070312 L 3.359375 4.070312 Z M 1.800781 2.957031 C 0.804688 2.957031 0 2.28125 0 1.472656 C 0 0.660156 0.804688 0 1.800781 0 C 2.796875 0 3.601562 0.660156 3.601562 1.472656 C 3.601562 2.28125 2.796875 2.957031 1.800781 2.957031 Z M 14.996094 12.25 L 11.894531 12.25 L 11.894531 8.269531 C 11.894531 7.320312 11.871094 6.101562 10.277344 6.101562 C 8.660156 6.101562 8.410156 7.132812 8.410156 8.199219 L 8.410156 12.25 L 5.304688 12.25 L 5.304688 4.070312 L 8.289062 4.070312 L 8.289062 5.1875 L 8.332031 5.1875 C 8.746094 4.542969 9.761719 3.867188 11.273438 3.867188 C 14.421875 3.867188 15 5.558594 15 7.757812 L 15 12.25 Z M 14.996094 12.25 "/>
</g>
</svg>
