<?xml version="1.0" encoding="UTF-8"?>
<svg xmlns="http://www.w3.org/2000/svg" xmlns:xlink="http://www.w3.org/1999/xlink" width="17px" height="15px" viewBox="0 0 17 15" version="1.1">
<g id="surface1">
<path style=" stroke:none;fill-rule:nonzero;fill:rgb(0%,0%,0%);fill-opacity:1;" d="M 15.253906 4.445312 C 15.261719 4.578125 15.261719 4.710938 15.261719 4.84375 C 15.261719 8.910156 11.757812 13.589844 5.351562 13.589844 C 3.375 13.589844 1.542969 13.085938 0 12.210938 C 0.28125 12.238281 0.550781 12.25 0.839844 12.25 C 2.46875 12.25 3.96875 11.765625 5.167969 10.9375 C 3.636719 10.90625 2.351562 10.023438 1.910156 8.804688 C 2.125 8.832031 2.339844 8.851562 2.566406 8.851562 C 2.878906 8.851562 3.191406 8.8125 3.484375 8.746094 C 1.886719 8.460938 0.691406 7.222656 0.691406 5.730469 L 0.691406 5.691406 C 1.152344 5.921875 1.695312 6.0625 2.265625 6.082031 C 1.328125 5.53125 0.710938 4.585938 0.710938 3.523438 C 0.710938 2.949219 0.882812 2.425781 1.1875 1.96875 C 2.902344 3.835938 5.480469 5.054688 8.371094 5.1875 C 8.316406 4.957031 8.285156 4.722656 8.285156 4.484375 C 8.285156 2.789062 9.835938 1.410156 11.769531 1.410156 C 12.773438 1.410156 13.675781 1.78125 14.3125 2.378906 C 15.101562 2.246094 15.855469 1.988281 16.523438 1.636719 C 16.265625 2.351562 15.714844 2.949219 14.992188 3.332031 C 15.695312 3.265625 16.375 3.09375 17 2.855469 C 16.527344 3.464844 15.933594 4.007812 15.253906 4.445312 Z M 15.253906 4.445312 "/>
</g>
</svg>
